<svg width="163" height="73" viewBox="0 0 163 73" fill="currentColor" xmlns="http://www.w3.org/2000/svg">
<mask id="path-1-inside-1_4_79" fill="white">
<path fill-rule="evenodd" clip-rule="evenodd" d="M80.2534 64.4659C70.3985 53.0797 70.3736 38.9317 82.2291 27.1581C93.2119 16.2514 111.846 9.90876 131.395 9.11844C141.25 20.5046 141.275 34.6526 129.419 46.4262C118.436 57.333 99.8021 63.6756 80.2534 64.4659Z"/>
</mask>
<path fill-rule="evenodd" clip-rule="evenodd" d="M80.2534 64.4659C70.3985 53.0797 70.3736 38.9317 82.2291 27.1581C93.2119 16.2514 111.846 9.90876 131.395 9.11844C141.25 20.5046 141.275 34.6526 129.419 46.4262C118.436 57.333 99.8021 63.6756 80.2534 64.4659Z" fill="white"/>
<path d="M80.2534 64.4659L78.1595 65.4329L78.7225 66.0835L79.9482 66.0339L80.2534 64.4659ZM82.2291 27.1581L84.1049 27.852L82.2291 27.1581ZM131.395 9.11844L133.489 8.15145L132.926 7.50087L131.7 7.55042L131.395 9.11844ZM82.3473 63.4989C72.7931 52.4602 72.9261 38.9535 84.1049 27.852L80.3533 26.4643C67.821 38.9099 68.004 53.6993 78.1595 65.4329L82.3473 63.4989ZM84.1049 27.852C94.4637 17.5648 112.174 11.4512 131.09 10.6865L131.7 7.55042C111.519 8.36632 91.96 14.9379 80.3533 26.4643L84.1049 27.852ZM129.301 10.0854C138.855 21.1242 138.722 34.6308 127.543 45.7323L131.295 47.1201C143.827 34.6745 143.644 19.885 133.489 8.15145L129.301 10.0854ZM127.543 45.7323C117.185 56.0195 99.4746 62.1332 80.5585 62.8979L79.9482 66.0339C100.13 65.2181 119.688 58.6465 131.295 47.1201L127.543 45.7323Z" fill="black" mask="url(#path-1-inside-1_4_79)"/>
<mask id="path-3-inside-2_4_79" fill="white">
<path fill-rule="evenodd" clip-rule="evenodd" d="M84.2062 63.6447C64.4681 63.261 45.3512 57.2188 33.793 46.415C22.2349 35.6112 20.9333 22.5676 28.4086 11.489C48.1467 11.8727 67.2636 17.9149 78.8218 28.7187C90.3799 39.5226 91.6815 52.5661 84.2062 63.6447Z"/>
</mask>
<path fill-rule="evenodd" clip-rule="evenodd" d="M84.2062 63.6447C64.4681 63.261 45.3512 57.2188 33.793 46.415C22.2349 35.6112 20.9333 22.5676 28.4086 11.489C48.1467 11.8727 67.2636 17.9149 78.8218 28.7187C90.3799 39.5226 91.6815 52.5661 84.2062 63.6447Z" fill="white"/>
<path d="M84.2062 63.6447L84.5466 65.1934L85.8909 65.2195L86.4001 64.4649L84.2062 63.6447ZM33.793 46.415L35.6544 45.6834L33.793 46.415ZM28.4086 11.489L28.0682 9.94037L26.7239 9.91423L26.2147 10.6688L28.4086 11.489ZM83.8658 62.0961C64.7799 61.7251 46.5826 55.8983 35.6544 45.6834L31.9316 47.1465C44.1199 58.5394 64.1563 64.797 84.5466 65.1934L83.8658 62.0961ZM35.6544 45.6834C24.7264 35.4686 23.3742 23.0218 30.6025 12.3092L26.2147 10.6688C18.4924 22.1135 19.7434 35.7537 31.9316 47.1465L35.6544 45.6834ZM28.749 13.0377C47.835 13.4087 66.0322 19.2354 76.9604 29.4503L80.6832 27.9872C68.4949 16.5944 48.4585 10.3367 28.0682 9.94037L28.749 13.0377ZM76.9604 29.4503C87.8884 39.6651 89.2407 52.1119 82.0123 62.8245L86.4001 64.4649C94.1224 53.0202 92.8714 39.38 80.6832 27.9872L76.9604 29.4503Z" fill="black" mask="url(#path-3-inside-2_4_79)"/>
<mask id="path-5-inside-3_4_79" fill="white">
<path fill-rule="evenodd" clip-rule="evenodd" d="M57.0896 55.5489C65.7556 44.7936 82.683 36.7006 103.679 34.7378C124.676 32.775 144.839 37.4006 158.449 46.0733C149.783 56.8286 132.856 64.9216 111.86 66.8844C90.8635 68.8472 70.6996 64.2216 57.0896 55.5489Z"/>
</mask>
<path fill-rule="evenodd" clip-rule="evenodd" d="M57.0896 55.5489C65.7556 44.7936 82.683 36.7006 103.679 34.7378C124.676 32.775 144.839 37.4006 158.449 46.0733C149.783 56.8286 132.856 64.9216 111.86 66.8844C90.8635 68.8472 70.6996 64.2216 57.0896 55.5489Z" fill="white"/>
<path d="M57.0896 55.5489L55.3933 54.2296L54.1056 55.8278L56.128 57.1166L57.0896 55.5489ZM158.449 46.0733L160.146 47.3926L161.433 45.7944L159.411 44.5056L158.449 46.0733ZM111.86 66.8844L112.353 68.8226L111.86 66.8844ZM58.7858 56.8681C67.0994 46.5502 83.5347 38.6053 104.173 36.676L103.186 32.7996C81.8314 34.7959 64.4118 43.037 55.3933 54.2296L58.7858 56.8681ZM104.173 36.676C124.81 34.7468 144.431 39.3209 157.488 47.6411L159.411 44.5056C145.248 35.4802 124.541 30.8033 103.186 32.7996L104.173 36.676ZM156.753 44.7541C148.44 55.072 132.004 63.0169 111.366 64.9462L112.353 68.8226C133.708 66.8263 151.127 58.5852 160.146 47.3926L156.753 44.7541ZM111.366 64.9462C90.7287 66.8754 71.1077 62.3013 58.0511 53.9811L56.128 57.1166C70.2915 66.142 90.9983 70.8189 112.353 68.8226L111.366 64.9462Z" fill="black" mask="url(#path-5-inside-3_4_79)"/>
<mask id="path-7-inside-4_4_79" fill="white">
<path fill-rule="evenodd" clip-rule="evenodd" d="M104.904 54.4454C95.5056 43.9186 78.0359 36.2606 56.9227 34.8303C35.8097 33.4001 15.9818 38.5314 2.98048 47.5407C12.3792 58.0676 29.8489 65.7256 50.9621 67.1558C72.0751 68.586 91.9031 63.4547 104.904 54.4454Z"/>
</mask>
<path fill-rule="evenodd" clip-rule="evenodd" d="M104.904 54.4454C95.5056 43.9186 78.0359 36.2606 56.9227 34.8303C35.8097 33.4001 15.9818 38.5314 2.98048 47.5407C12.3792 58.0676 29.8489 65.7256 50.9621 67.1558C72.0751 68.586 91.9031 63.4547 104.904 54.4454Z" fill="white"/>
<path d="M104.904 54.4454L105.955 56.008L107.916 54.6494L106.498 53.062L104.904 54.4454ZM2.98048 47.5407L1.92982 45.9781L-0.0307417 47.3367L1.38656 48.9241L2.98048 47.5407ZM50.9621 67.1558L50.5994 69.1226L50.9621 67.1558ZM56.56 36.7972C77.3202 38.2035 94.2928 45.7288 103.31 55.8288L106.498 53.062C96.7184 42.1083 78.7515 34.3176 57.2854 32.8635L56.56 36.7972ZM4.03114 49.1033C16.5052 40.4593 35.8 35.3909 56.56 36.7972L57.2854 32.8635C35.8195 31.4094 15.4583 36.6035 1.92982 45.9781L4.03114 49.1033ZM51.3248 65.1889C30.5646 63.7826 13.592 56.2573 4.57441 46.1573L1.38656 48.9241C11.1664 59.8779 29.1333 67.6685 50.5994 69.1226L51.3248 65.1889ZM103.854 52.8828C91.3796 61.5268 72.0848 66.5953 51.3248 65.1889L50.5994 69.1226C72.0654 70.5768 92.4265 65.3826 105.955 56.008L103.854 52.8828Z" fill="black" mask="url(#path-7-inside-4_4_79)"/>
<mask id="path-9-inside-5_4_79" fill="white">
<path fill-rule="evenodd" clip-rule="evenodd" d="M83.6261 64.2527C70.7862 55.1587 65.26 42.5279 70.6321 30.0701C76.0041 17.6124 91.0203 8.23569 109.56 4.11251C122.4 13.2065 127.926 25.8373 122.554 38.2951C117.182 50.7528 102.166 60.1295 83.6261 64.2527Z"/>
</mask>
<path fill-rule="evenodd" clip-rule="evenodd" d="M83.6261 64.2527C70.7862 55.1587 65.26 42.5279 70.6321 30.0701C76.0041 17.6124 91.0203 8.23569 109.56 4.11251C122.4 13.2065 127.926 25.8373 122.554 38.2951C117.182 50.7528 102.166 60.1295 83.6261 64.2527Z" fill="white"/>
<path d="M83.6261 64.2527L82.0896 65.7964L82.7567 66.2689L83.72 66.0547L83.6261 64.2527ZM70.6321 30.0701L68.6567 29.7572L70.6321 30.0701ZM109.56 4.11251L111.096 2.56879L110.429 2.0963L109.466 2.31053L109.56 4.11251ZM85.1627 62.709C72.6111 53.8192 67.6768 41.8173 72.6074 30.3831L68.6567 29.7572C62.8433 43.2385 68.9613 56.4982 82.0896 65.7964L85.1627 62.709ZM72.6074 30.3831C77.5381 18.9489 91.5305 9.94508 109.654 5.9145L109.466 2.31053C90.5102 6.5263 74.4701 16.2759 68.6567 29.7572L72.6074 30.3831ZM108.023 5.65623C120.575 14.546 125.509 26.5479 120.578 37.9822L124.529 38.608C130.343 25.1267 124.225 11.867 111.096 2.56879L108.023 5.65623ZM120.578 37.9822C115.648 49.4164 101.655 58.4201 83.5323 62.4507L83.72 66.0547C102.676 61.8389 118.716 52.0893 124.529 38.608L120.578 37.9822Z" fill="black" mask="url(#path-9-inside-5_4_79)"/>
<mask id="path-11-inside-6_4_79" fill="white">
<path fill-rule="evenodd" clip-rule="evenodd" d="M81.4159 64.2464C62.78 60.2859 47.5419 51.0416 41.8736 38.632C36.2053 26.2226 41.4301 13.5447 54.0521 4.33926C72.688 8.29973 87.9261 17.5441 93.5944 29.9536C99.2627 42.3631 94.0379 55.041 81.4159 64.2464Z"/>
</mask>
<path fill-rule="evenodd" clip-rule="evenodd" d="M81.4159 64.2464C62.78 60.2859 47.5419 51.0416 41.8736 38.632C36.2053 26.2226 41.4301 13.5447 54.0521 4.33926C72.688 8.29973 87.9261 17.5441 93.5944 29.9536C99.2627 42.3631 94.0379 55.041 81.4159 64.2464Z" fill="white"/>
<path d="M81.4159 64.2464L81.3524 66.0387L82.3294 66.2463L82.9911 65.7637L81.4159 64.2464ZM41.8736 38.632L39.9012 38.963L41.8736 38.632ZM54.0521 4.33926L54.1156 2.54696L53.1386 2.33933L52.4769 2.82193L54.0521 4.33926ZM81.4794 62.4541C63.2699 58.5842 49.0548 49.7047 43.846 38.3011L39.9012 38.963C46.0289 52.3784 62.2901 61.9876 81.3524 66.0387L81.4794 62.4541ZM43.846 38.3011C38.6372 26.8974 43.2941 14.8513 55.6273 5.85659L52.4769 2.82193C39.566 12.238 33.7735 25.5477 39.9012 38.963L43.846 38.3011ZM53.9886 6.13156C72.1981 10.0014 86.4132 18.8809 91.622 30.2846L95.5668 29.6226C89.4391 16.2073 73.1779 6.59805 54.1156 2.54696L53.9886 6.13156ZM91.622 30.2846C96.8308 41.6882 92.1739 53.7343 79.8407 62.7291L82.9911 65.7637C95.902 56.3477 101.695 43.038 95.5668 29.6226L91.622 30.2846Z" fill="black" mask="url(#path-11-inside-6_4_79)"/>
<mask id="path-13-inside-7_4_79" fill="white">
<path fill-rule="evenodd" clip-rule="evenodd" d="M81.1655 64.9141C65.0286 58.0145 54.5448 46.5961 54.6944 33.7201C54.8441 20.8442 65.5922 9.51644 81.888 2.7553C98.025 9.65492 108.509 21.0734 108.359 33.9493C108.209 46.8252 97.4613 58.153 81.1655 64.9141Z"/>
</mask>
<path fill-rule="evenodd" clip-rule="evenodd" d="M81.1655 64.9141C65.0286 58.0145 54.5448 46.5961 54.6944 33.7201C54.8441 20.8442 65.5922 9.51644 81.888 2.7553C98.025 9.65492 108.509 21.0734 108.359 33.9493C108.209 46.8252 97.4613 58.153 81.1655 64.9141Z" fill="white"/>
<path d="M81.1655 64.9141L80.3677 66.7539L81.1403 67.0842L81.9205 66.7605L81.1655 64.9141ZM54.6944 33.7201L56.6944 33.7287L54.6944 33.7201ZM81.888 2.7553L82.6858 0.915581L81.9132 0.585252L81.133 0.908952L81.888 2.7553ZM81.9634 63.0744C66.1228 56.3015 56.5587 45.4088 56.6944 33.7287L52.6944 33.7116C52.5309 47.7834 63.9344 59.7275 80.3677 66.7539L81.9634 63.0744ZM56.6944 33.7287C56.8302 22.0486 66.6465 11.2386 82.6429 4.60164L81.133 0.908952C64.538 7.79428 52.858 19.6398 52.6944 33.7116L56.6944 33.7287ZM81.0902 4.59501C96.9308 11.3679 106.495 22.2607 106.359 33.9408L110.359 33.9578C110.523 19.8861 99.1191 7.94193 82.6858 0.915581L81.0902 4.59501ZM106.359 33.9408C106.223 45.6208 96.407 56.4308 80.4106 63.0678L81.9205 66.7605C98.5156 59.8752 110.196 48.0296 110.359 33.9578L106.359 33.9408Z" fill="black" mask="url(#path-13-inside-7_4_79)"/>
<path d="M70.86 41C70.82 41 70.7867 41 70.76 41C70.7333 40.9867 70.7067 40.9733 70.68 40.96C70.6667 40.9333 70.6533 40.9067 70.64 40.88C70.64 40.8533 70.64 40.82 70.64 40.78C70.64 39.7 70.64 38.6067 70.64 37.5C70.64 36.38 70.64 35.2933 70.64 34.24C70.64 33.1733 70.64 32.18 70.64 31.26C70.64 30.34 70.64 29.5333 70.64 28.84C70.64 28.5333 70.64 28.2267 70.64 27.92C70.64 27.6133 70.64 27.3067 70.64 27C70.92 27 71.2 27 71.48 27C71.76 27 72.04 27 72.32 27C72.3733 27 72.4133 27.0133 72.44 27.04C72.4667 27.0533 72.4867 27.08 72.5 27.12C72.5267 27.1467 72.54 27.18 72.54 27.22C72.54 28.22 72.54 29.2267 72.54 30.24C72.54 31.2533 72.54 32.2667 72.54 33.28C72.54 34.2933 72.54 35.3067 72.54 36.32C72.54 37.32 72.54 38.32 72.54 39.32H77.52C77.7333 39.32 77.92 39.36 78.08 39.44C78.24 39.52 78.3733 39.6333 78.48 39.78C78.5867 39.9267 78.6733 40.1 78.74 40.3C78.8067 40.5 78.8533 40.7333 78.88 41H70.86ZM77.14 37.36C77.3133 37.36 77.48 37.36 77.64 37.36C77.8133 37.36 77.98 37.36 78.14 37.36C78.3133 37.36 78.4867 37.36 78.66 37.36C78.7 37.36 78.7333 37.3733 78.76 37.4C78.8 37.4133 78.8267 37.44 78.84 37.48C78.8667 37.5067 78.88 37.54 78.88 37.58C78.88 37.8333 78.88 38.1067 78.88 38.4C78.88 38.68 78.88 38.98 78.88 39.3C78.88 39.6067 78.88 39.9067 78.88 40.2C78.88 40.4933 78.88 40.76 78.88 41C78.4267 40.9733 78.0733 40.9067 77.82 40.8C77.5667 40.68 77.3867 40.5267 77.28 40.34C77.1867 40.14 77.14 39.9067 77.14 39.64C77.14 39.4 77.14 39.1533 77.14 38.9C77.14 38.6333 77.14 38.3667 77.14 38.1C77.14 37.8333 77.14 37.5867 77.14 37.36ZM83.1761 41C82.9094 41 82.6428 41 82.3761 41C82.1094 41 81.8428 41 81.5761 41C81.5361 41 81.4961 40.9933 81.4561 40.98C81.4294 40.9533 81.4028 40.9267 81.3761 40.9C81.3628 40.86 81.3561 40.82 81.3561 40.78C81.3561 39.8333 81.3561 38.8933 81.3561 37.96C81.3561 37.0133 81.3561 36.0733 81.3561 35.14C81.3561 34.1933 81.3561 33.2467 81.3561 32.3C81.3561 31.3533 81.3561 30.4067 81.3561 29.46C81.3561 29.06 81.3561 28.6533 81.3561 28.24C81.3561 27.8267 81.3561 27.4133 81.3561 27C81.5694 27 81.8161 27 82.0961 27C82.3761 27 82.6494 27 82.9161 27C83.1961 27 83.4428 27 83.6561 27C83.7094 27 83.7561 27.0067 83.7961 27.02C83.8361 27.0333 83.8761 27.0733 83.9161 27.14C83.9561 27.1933 84.0094 27.28 84.0761 27.4C84.3028 27.8267 84.5561 28.32 84.8361 28.88C85.1294 29.4267 85.4428 30.02 85.7761 30.66C86.1228 31.3 86.4761 31.9733 86.8361 32.68C87.1961 33.3733 87.5628 34.08 87.9361 34.8C88.3228 35.52 88.6961 36.24 89.0561 36.96C89.4161 37.6667 89.7628 38.3467 90.0961 39L89.2961 38.38H90.5361L90.1961 38.76C90.1294 38.12 90.0694 37.5 90.0161 36.9C89.9761 36.3 89.9428 35.7067 89.9161 35.12C89.8894 34.52 89.8694 33.94 89.8561 33.38C89.8428 32.8067 89.8294 32.24 89.8161 31.68C89.8161 31.1067 89.8161 30.5467 89.8161 30C89.8161 29.5333 89.8161 29.0467 89.8161 28.54C89.8161 28.0333 89.8161 27.52 89.8161 27C90.0828 27 90.3494 27 90.6161 27C90.8828 27 91.1494 27 91.4161 27C91.4828 27 91.5361 27.02 91.5761 27.06C91.6161 27.1 91.6361 27.1533 91.6361 27.22C91.6361 28.1267 91.6361 29.04 91.6361 29.96C91.6361 30.88 91.6361 31.8 91.6361 32.72C91.6361 33.6267 91.6361 34.54 91.6361 35.46C91.6361 36.3667 91.6361 37.28 91.6361 38.2C91.6361 38.6667 91.6361 39.1333 91.6361 39.6C91.6361 40.0667 91.6361 40.5333 91.6361 41C91.4494 41 91.2294 41 90.9761 41C90.7361 41 90.4894 41 90.2361 41C89.9961 41 89.7894 41 89.6161 41C89.5361 41 89.4561 40.98 89.3761 40.94C89.2961 40.8867 89.2028 40.76 89.0961 40.56C88.5761 39.64 88.0561 38.7 87.5361 37.74C87.0294 36.7667 86.5094 35.7867 85.9761 34.8C85.4561 33.8 84.9361 32.8 84.4161 31.8C83.9094 30.7867 83.4028 29.7867 82.8961 28.8L83.6961 29.52H82.5361L82.8361 28.98C82.9028 29.6733 82.9494 30.3467 82.9761 31C83.0161 31.64 83.0494 32.2667 83.0761 32.88C83.1028 33.48 83.1228 34.0667 83.1361 34.64C83.1628 35.2 83.1761 35.74 83.1761 36.26C83.1761 36.78 83.1761 37.2867 83.1761 37.78C83.1628 38.2467 83.1561 38.7667 83.1561 39.34C83.1694 39.9133 83.1761 40.4667 83.1761 41Z" fill="black"/>
</svg>
